<?xml version="1.0" standalone="no"?>
<svg viewBox="0 0 200 200" xmlns="http://www.w3.org/2000/svg">
  <path fill="#0F62FE" d="M38.7,-53.1C53.7,-50.5,72,-45.9,75.3,-35.4C78.6,-24.8,66.9,-8.5,61.5,6.8C56.1,22,57,36.1,51.4,47.2C45.9,58.2,33.9,66.3,20.8,69.7C7.7,73,-6.5,71.7,-21,68.7C-35.5,65.8,-50.3,61.1,-61.6,51.5C-72.9,41.9,-80.6,27.3,-80.9,12.8C-81.1,-1.6,-73.8,-16,-67,-30.5C-60.2,-44.9,-53.9,-59.5,-42.8,-63.9C-31.7,-68.3,-15.9,-62.6,-2,-59.4C11.8,-56.3,23.6,-55.7,38.7,-53.1Z" transform="translate(100 100)"  />
</svg>

