<?xml version="1.0" encoding="UTF-8" standalone="no"?>
<!DOCTYPE svg PUBLIC "-//W3C//DTD SVG 1.1//EN" "http://www.w3.org/Graphics/SVG/1.1/DTD/svg11.dtd">
<svg xmlns="http://www.w3.org/2000/svg" version="1.1" viewBox="0.00 0.00 284.00 54.00">
<circle fill="#fe9352" cx="247.57" cy="5.00" r="4.58"/>
<path fill="#004aac" d="
  M 0.00 29.15
  L 0.00 27.60
  L 23.19 4.19
  A 1.84 1.83 -67.7 0 1 24.50 3.64
  L 40.53 3.58
  Q 41.78 3.58 40.90 4.46
  L 17.32 28.04
  Q 16.90 28.46 17.32 28.88
  L 41.19 52.83
  A 0.29 0.29 0.0 0 1 40.98 53.33
  L 24.46 53.30
  Q 23.83 53.29 23.39 52.85
  L 0.00 29.15
  Z"
/>
<path fill="#000000" d="
  M 92.69 17.81
  L 92.68 6.32
  A 0.44 0.44 0.0 0 1 93.12 5.88
  L 102.55 5.89
  A 0.56 0.55 0.0 0 1 103.11 6.44
  L 103.11 43.20
  Q 103.11 44.00 102.30 44.00
  L 95.30 44.00
  Q 94.59 44.00 94.44 43.30
  L 93.93 40.79
  Q 93.78 40.10 93.33 40.63
  Q 88.48 46.34 80.71 43.89
  C 73.42 41.59 72.51 32.59 73.48 25.98
  C 74.70 17.69 81.26 13.86 89.15 16.42
  C 90.11 16.73 91.13 17.49 91.88 18.17
  Q 92.69 18.91 92.69 17.81
  Z
  M 92.65 27.59
  A 4.20 4.20 0.0 0 0 88.45 23.39
  L 87.83 23.39
  A 4.20 4.20 0.0 0 0 83.63 27.59
  L 83.63 32.65
  A 4.20 4.20 0.0 0 0 87.83 36.85
  L 88.45 36.85
  A 4.20 4.20 0.0 0 0 92.65 32.65
  L 92.65 27.59
  Z"
/>
<rect fill="#000000" x="174.84" y="7.64" width="3.60" height="38.36" rx="0.47"/>
<path fill="#000000" d="
  M 152.96 14.87
  L 152.94 26.60
  A 0.36 0.36 0.0 0 0 153.30 26.96
  L 169.14 26.96
  A 0.36 0.36 0.0 0 1 169.50 27.32
  L 169.49 29.90
  A 0.36 0.36 0.0 0 1 169.13 30.26
  L 153.30 30.27
  A 0.36 0.36 0.0 0 0 152.94 30.63
  L 152.97 45.65
  A 0.36 0.36 0.0 0 1 152.60 46.01
  L 149.68 45.97
  A 0.36 0.36 0.0 0 1 149.33 45.61
  L 149.34 11.59
  A 0.36 0.36 0.0 0 1 149.70 11.23
  L 169.64 11.22
  A 0.36 0.36 0.0 0 1 170.00 11.58
  L 169.98 14.15
  A 0.36 0.36 0.0 0 1 169.62 14.51
  L 153.32 14.51
  A 0.36 0.36 0.0 0 0 152.96 14.87
  Z"
/>
<path fill="#004aac" d="
  M 244.60 54.00
  L 236.43 54.00
  L 245.56 14.30
  Q 245.63 13.99 245.95 13.99
  L 253.73 14.01
  Q 253.93 14.01 253.88 14.20
  L 244.60 54.00
  Z"
/>
<path fill="#000000" d="
  M 69.3355 31.4143
  A 13.10 13.10 0.0 0 1 56.1899 44.4685
  L 51.2899 44.4514
  A 13.10 13.10 0.0 0 1 38.2357 31.3057
  L 38.2445 28.8057
  A 13.10 13.10 0.0 0 1 51.3901 15.7515
  L 56.2901 15.7686
  A 13.10 13.10 0.0 0 1 69.3443 28.9143
  L 69.3355 31.4143
  Z
  M 58.9175 27.4272
  A 4.74 4.74 0.0 0 0 54.1199 22.7454
  L 53.2800 22.7557
  A 4.74 4.74 0.0 0 0 48.5983 27.5532
  L 48.6625 32.8128
  A 4.74 4.74 0.0 0 0 53.4601 37.4946
  L 54.3000 37.4843
  A 4.74 4.74 0.0 0 0 58.9817 32.6868
  L 58.9175 27.4272
  Z"
/>
<path fill="#000000" d="
  M 118.91 32.25
  C 118.72 37.24 123.23 39.14 127.36 37.42
  Q 129.21 36.64 129.43 34.62
  A 0.78 0.76 -86.6 0 1 130.19 33.93
  L 139.04 33.92
  A 0.66 0.66 0.0 0 1 139.69 34.66
  Q 138.79 41.81 131.67 43.68
  C 122.14 46.18 109.49 44.25 108.53 32.10
  Q 107.42 17.94 120.70 15.88
  C 131.84 14.15 140.39 19.42 139.65 31.52
  A 0.45 0.45 0.0 0 1 139.20 31.95
  L 119.25 31.92
  A 0.34 0.34 0.0 0 0 118.91 32.25
  Z
  M 119.17 27.00
  L 129.07 26.96
  A 0.12 0.12 0.0 0 0 129.19 26.84
  L 129.19 26.78
  A 4.73 4.52 -0.2 0 0 124.44 22.28
  L 123.76 22.28
  A 4.73 4.52 -0.2 0 0 119.05 26.82
  L 119.05 26.88
  A 0.12 0.12 0.0 0 0 119.17 27.00
  Z"
/>
<path fill="#000000" d="
  M 188.51 36.84
  Q 189.31 39.64 191.58 41.14
  Q 197.42 44.99 202.64 39.82
  Q 202.99 39.46 203.49 39.45
  L 206.27 39.37
  Q 207.03 39.34 206.67 40.01
  Q 203.80 45.19 198.35 46.12
  C 188.17 47.86 180.95 36.85 186.47 28.34
  C 193.16 18.02 208.83 23.53 208.04 35.59
  A 0.58 0.57 1.6 0 1 207.46 36.13
  L 189.06 36.11
  Q 188.30 36.11 188.51 36.84
  Z
  M 188.84 33.05
  L 203.76 33.05
  A 0.13 0.13 0.0 0 0 203.89 32.92
  L 203.89 32.86
  A 7.49 6.21 0.0 0 0 196.40 26.65
  L 196.20 26.65
  A 7.49 6.21 0.0 0 0 188.71 32.86
  L 188.71 32.92
  A 0.13 0.13 0.0 0 0 188.84 33.05
  Z"
/>
<path fill="#000000" d="
  M 227.27 23.51
  L 230.99 23.48
  A 0.33 0.33 0.0 0 1 231.26 23.99
  L 223.89 34.56
  A 0.33 0.33 0.0 0 0 223.89 34.94
  L 231.29 45.49
  A 0.33 0.33 0.0 0 1 231.02 46.01
  L 227.28 45.98
  A 0.33 0.33 0.0 0 1 227.00 45.83
  L 221.74 37.65
  A 0.33 0.33 0.0 0 0 221.18 37.65
  L 215.93 45.83
  A 0.33 0.33 0.0 0 1 215.65 45.98
  L 211.90 46.02
  A 0.33 0.33 0.0 0 1 211.63 45.50
  L 219.04 34.88
  A 0.33 0.33 0.0 0 0 219.04 34.50
  L 211.65 23.99
  A 0.33 0.33 0.0 0 1 211.92 23.47
  L 215.66 23.51
  A 0.33 0.33 0.0 0 1 215.94 23.66
  L 221.17 31.73
  A 0.33 0.33 0.0 0 0 221.73 31.73
  L 226.99 23.66
  A 0.33 0.33 0.0 0 1 227.27 23.51
  Z"
/>
<rect fill="#fe9352" x="256.04" y="47.75" width="26.64" height="5.72" rx="0.45"/>
</svg>
